<svg xmlns="http://www.w3.org/2000/svg" viewBox="0 0 500 500"><g id="freepik--Board--inject-250"><path d="M224.68,407.12,243.4,388.4l18.72,18.72a2.58,2.58,0,0,0,1.82.75h0a2.57,2.57,0,0,0,1.82-4.39L243.4,381.12,221,403.48a2.57,2.57,0,0,0,1.82,4.39h0A2.58,2.58,0,0,0,224.68,407.12Z" style="fill:#407BFF"></path><polygon points="244.03 381.76 242.77 381.76 237.03 387.49 237.03 394.5 237.3 394.5 243.4 388.4 249.5 394.5 249.77 394.5 249.77 387.49 244.03 381.76" style="opacity:0.2"></polygon><path d="M239.57,323.37h7.66a0,0,0,0,1,0,0v81.5a3,3,0,0,1-3,3h-1.66a3,3,0,0,1-3-3v-81.5A0,0,0,0,1,239.57,323.37Z" style="fill:#407BFF"></path><rect x="239.57" y="323.37" width="7.66" height="30.03" style="opacity:0.2"></rect><path d="M379.74,342.63H107.06a10.17,10.17,0,0,1-10.15-10.16V120.93h293V332.47A10.17,10.17,0,0,1,379.74,342.63ZM100.34,124.36V332.47a6.73,6.73,0,0,0,6.72,6.73H379.74a6.73,6.73,0,0,0,6.72-6.73V124.36Z" style="fill:#407BFF"></path><g style="opacity:0.8"><path d="M379.74,342.63H107.06a10.17,10.17,0,0,1-10.15-10.16V120.93h293V332.47A10.17,10.17,0,0,1,379.74,342.63ZM100.34,124.36V332.47a6.73,6.73,0,0,0,6.72,6.73H379.74a6.73,6.73,0,0,0,6.72-6.73V124.36Z" style="fill:#fff"></path></g><path d="M100.34,124.36V332.47a6.73,6.73,0,0,0,6.72,6.73H379.74a6.73,6.73,0,0,0,6.72-6.73V124.36Z" style="fill:#fff"></path><rect x="90.29" y="118.79" width="306.22" height="7.72" style="fill:#407BFF"></rect><rect x="90.29" y="118.79" width="306.22" height="3.86" style="fill:#fff;opacity:0.5"></rect><path d="M127.54,302.3s170.65-3.18,223.21-151.9l-1.81,152.24Z" style="fill:#407BFF"></path><g style="opacity:0.7000000000000001"><path d="M127.54,302.3s170.65-3.18,223.21-151.9l-1.81,152.24Z" style="fill:#fff"></path></g><path d="M128.86,303.16a1,1,0,0,1-.05-2c8.28-.39,51.91-3.38,98.89-23.86,60-26.18,100.92-69,121.52-127.3a1,1,0,0,1,1.88.66c-11.35,32.15-29.17,60-53,82.83-19.38,18.59-42.81,33.94-69.64,45.64-47.3,20.63-91.26,23.64-99.59,24Z" style="fill:#407BFF"></path><path d="M137.76,312.52a1,1,0,0,1-1-1v-8.31a1,1,0,0,1,2,0v8.31A1,1,0,0,1,137.76,312.52Z" style="fill:#407BFF"></path><path d="M172.47,312.56a1,1,0,0,1-1-1v-8.31a1,1,0,0,1,2,0v8.31A1,1,0,0,1,172.47,312.56Z" style="fill:#407BFF"></path><path d="M207.18,312.59a1,1,0,0,1-1-1v-8.31a1,1,0,0,1,2,0v8.31A1,1,0,0,1,207.18,312.59Z" style="fill:#407BFF"></path><path d="M241.89,312.62a1,1,0,0,1-1-1v-8.31a1,1,0,0,1,2,0v8.31A1,1,0,0,1,241.89,312.62Z" style="fill:#407BFF"></path><path d="M276.6,312.65a1,1,0,0,1-1-1v-8.3a1,1,0,0,1,2,0v8.3A1,1,0,0,1,276.6,312.65Z" style="fill:#407BFF"></path><path d="M311.3,312.69a1,1,0,0,1-1-1v-8.31a1,1,0,0,1,2,0v8.31A1,1,0,0,1,311.3,312.69Z" style="fill:#407BFF"></path><path d="M346,312.72a1,1,0,0,1-1-1v-8.31a1,1,0,0,1,2,0v8.31A1,1,0,0,1,346,312.72Z" style="fill:#407BFF"></path><path d="M128,159.65h-4.48a1,1,0,0,1,0-2H128a1,1,0,0,1,0,2Z" style="fill:#407BFF"></path><path d="M128,181.42h-4.48a1,1,0,0,1,0-2H128a1,1,0,0,1,0,2Z" style="fill:#407BFF"></path><path d="M128,203.2h-4.48a1,1,0,1,1,0-2H128a1,1,0,0,1,0,2Z" style="fill:#407BFF"></path><path d="M128,225h-4.48a1,1,0,0,1,0-2H128a1,1,0,0,1,0,2Z" style="fill:#407BFF"></path><path d="M128,246.75h-4.48a1,1,0,0,1,0-2H128a1,1,0,0,1,0,2Z" style="fill:#407BFF"></path><path d="M128,268.53h-4.48a1,1,0,0,1,0-2H128a1,1,0,0,1,0,2Z" style="fill:#407BFF"></path><path d="M128,290.3h-4.48a1,1,0,1,1,0-2H128a1,1,0,0,1,0,2Z" style="fill:#407BFF"></path><path d="M357.4,304.21H128.86a1,1,0,0,1-1-1V150.05a1,1,0,0,1,2,0V302.21H357.4a1,1,0,0,1,0,2Z" style="fill:#407BFF"></path><path d="M190,153.91v2.55l-8,17.95H178l7.7-17.28h-8.06v3.49h-3.54v-6.71Z" style="fill:#407BFF"></path><path d="M191.8,164.16c0-6.74,3.69-10.55,8.56-10.55s8.58,3.81,8.58,10.55-3.69,10.54-8.58,10.54S191.8,170.9,191.8,164.16Zm13.3,0c0-4.95-1.93-7.24-4.74-7.24s-4.72,2.29-4.72,7.24,1.93,7.23,4.72,7.23S205.1,169.11,205.1,164.16Z" style="fill:#407BFF"></path><path d="M211.2,159.33c0-3.37,2-5.63,4.89-5.63s4.92,2.23,4.92,5.63-2,5.62-4.92,5.62S211.2,162.7,211.2,159.33Zm7.41,0c0-2.29-.94-3.58-2.52-3.58s-2.52,1.32-2.52,3.58,1,3.57,2.52,3.57S218.61,161.61,218.61,159.33Zm9.78-5.42h2.87l-14,20.5h-2.87ZM224.64,169c0-3.37,2-5.62,4.89-5.62s4.92,2.25,4.92,5.62-2,5.63-4.92,5.63S224.64,172.36,224.64,169Zm7.41,0c0-2.25-1-3.57-2.52-3.57S227,166.71,227,169s1,3.58,2.52,3.58S232.05,171.25,232.05,169Z" style="fill:#407BFF"></path><rect x="181.97" y="179.91" width="46.26" height="3.22" style="fill:#407BFF"></rect><rect x="174.22" y="187.66" width="54.01" height="3.22" style="fill:#407BFF"></rect><rect x="174.22" y="195.21" width="54.01" height="3.22" style="fill:#407BFF"></rect><rect x="174.22" y="202.76" width="42.08" height="3.22" style="fill:#407BFF"></rect></g></svg>